<svg width="440" height="441" xmlns="http://www.w3.org/2000/svg" xmlns:xlink="http://www.w3.org/1999/xlink" xml:space="preserve" overflow="hidden"><defs><clipPath id="clip0"><rect x="2372" y="932" width="440" height="441"/></clipPath></defs><g clip-path="url(#clip0)" transform="translate(-2372 -932)"><path d="M2372 932 2812 932 2812 1373 2372 1373Z" fill="#579240" fill-rule="evenodd"/><path d="M2484.93 1352.71C2484.93 1352.71 2473.9 1358.77 2478.72 1351.16 2483.53 1343.55 2498.6 1321.79 2498.6 1321.79 2498.6 1321.79 2498.13 1318.06 2500.46 1316.2 2502.79 1314.33 2507.61 1307.81 2507.61 1307.81L2546.28 1229.65C2546.28 1229.65 2549.23 1224.83 2549.39 1223.28 2549.54 1221.72 2552.49 1214.57 2560.41 1212.24 2568.34 1209.76 2577.5 1200.74 2577.5 1200.74 2577.5 1200.74 2615.09 1162.52 2623.94 1159.26 2632.64 1155.99 2632.33 1146.05 2628.91 1149.47 2625.34 1152.88 2614.78 1160.5 2605.3 1165.32 2595.83 1170.13 2584.64 1179.92 2584.64 1179.92 2584.64 1179.92 2572.84 1186.45 2565.23 1186.91 2557.62 1187.38 2547.83 1186.29 2547.06 1186.14 2546.44 1185.98 2546.28 1179.3 2549.7 1176.19 2553.11 1173.09 2558.24 1170.6 2559.17 1165.16 2560.1 1159.72 2564.92 1149 2568.34 1147.45 2571.75 1145.89 2575.17 1131.29 2590.39 1121.34 2597.85 1115.28 2568.02 1119.32 2568.02 1119.32L2510.4 1120.56C2510.4 1120.56 2503.57 1123.21 2498.29 1122.27 2493.01 1121.34 2488.19 1125.85 2488.19 1125.85 2488.19 1125.85 2477.32 1137.03 2471.26 1140.92 2465.21 1144.8 2447.5 1157.55 2444.86 1160.96 2442.22 1164.38 2434.14 1165.16 2434.14 1165.16L2410.22 1163.76C2410.22 1163.76 2408.83 1160.34 2413.02 1160.65 2417.21 1161.12 2428.24 1162.83 2430.26 1161.43 2432.28 1160.03 2452.94 1150.09 2457.13 1145.43 2461.17 1140.76 2471.88 1136.1 2477.63 1129.42 2483.38 1122.74 2488.35 1114.66 2495.34 1113.42 2502.33 1112.17 2528.89 1114.19 2535.1 1113.42 2541.47 1112.64 2560.26 1110.15 2562.74 1108.91 2565.23 1107.67 2577.5 1106.42 2579.36 1106.42 2581.23 1106.42 2603.75 1106.42 2603.75 1106.42 2603.75 1106.42 2618.97 1092.44 2623.01 1086.53 2627.05 1080.63 2641.18 1067.58 2644.6 1067.27 2648.17 1066.95 2649.1 1062.76 2649.1 1062.76 2649.1 1062.76 2646.93 1050.79 2643.82 1048 2643.35 1041 2649.72 1044.58 2649.72 1044.58 2649.72 1044.58 2653.14 1048.93 2654.54 1049.55 2655.93 1050.17 2657.33 1050.02 2656.71 1048.15 2656.09 1046.29 2652.98 1043.02 2652.67 1041 2652.36 1038.98 2655.16 1034.94 2657.8 1038.52 2660.44 1042.25 2658.57 1044.89 2658.57 1044.89 2658.57 1044.89 2657.33 1049.55 2659.82 1051.26 2662.3 1052.81 2663.54 1052.35 2663.54 1051.11 2663.54 1049.86 2662.3 1048 2663.54 1046.6 2664.79 1045.04 2669.91 1042.87 2671.15 1044.11 2672.4 1045.36 2674.88 1043.96 2675.5 1043.96 2676.12 1043.8 2677.99 1044.73 2677.99 1044.73 2677.99 1044.73 2676.75 971.235 2671.15 963 2677.99 963.777 2677.99 974.654 2677.99 974.654 2677.99 974.654 2681.72 1039.3 2681.56 1043.49 2681.56 1047.06 2682.65 1048.62 2684.82 1047.84 2687 1047.06 2698.18 1024.69 2744.62 1009.93 2747.73 1012.41 2744.62 1013.5 2744.62 1013.5 2744.62 1013.5 2709.98 1025.47 2687 1049.09 2685.44 1051.42 2691.5 1061.67 2691.5 1061.67 2691.5 1061.67 2697.56 1075.66 2682.03 1077.99 2677.52 1081.56 2679.23 1087.78 2682.96 1089.49 2686.69 1091.2 2687.77 1092.59 2691.97 1093.22 2696.16 1093.68 2705.48 1094.3 2710.92 1096.94 2713.56 1093.06 2719.92 1093.22 2719.92 1093.22L2731.42 1092.75 2732.82 1088.86 2739.49 1093.68C2739.49 1093.68 2739.96 1097.41 2736.7 1097.26 2733.44 1097.1 2730.33 1095.7 2727.69 1097.41 2725.05 1098.96 2723.65 1101.76 2723.34 1102.54 2723.03 1103.32 2721.79 1107.51 2711.38 1105.02 2701.13 1102.38 2689.64 1095.39 2677.52 1097.41 2665.41 1099.43 2666.96 1108.91 2668.67 1124.91 2670.22 1140.92 2671.31 1162.52 2670.07 1167.03 2679.23 1178.21 2689.95 1187.69 2689.95 1187.69 2689.95 1187.69 2695.23 1191.42 2698.34 1197.17 2701.44 1203.08 2706.1 1208.36 2708.43 1210.07 2720.23 1220.17 2712 1224.52 2705.48 1215.82 2704.24 1214.11 2696.32 1205.72 2696.32 1205.72 2696.32 1205.72 2689.79 1193.75 2671.31 1176.81 2652.83 1159.88 2661.84 1147.6 2661.84 1147.6 2661.84 1147.6 2666.03 1133.77 2661.99 1129.73 2657.95 1125.69 2653.6 1129.58 2653.6 1129.58 2653.6 1129.58 2643.51 1153.51 2634.34 1162.98 2625.18 1172.46 2616.17 1182.72 2609.18 1186.29 2602.19 1189.87 2575.01 1209.6 2575.01 1209.6L2567.09 1216.9C2567.09 1216.9 2569.27 1222.65 2563.52 1226.07 2557.77 1229.65 2552.65 1229.02 2552.65 1229.02 2552.65 1229.02 2516.15 1306.1 2510.87 1312.62 2505.59 1319.15 2508.07 1323.97 2508.07 1323.97 2508.07 1323.97 2504.81 1322.88 2503.26 1325.05 2501.7 1326.61 2484.93 1352.71 2484.93 1352.71Z" fill="#FFFFFF" fill-rule="evenodd"/></g></svg>