<svg width="1511" height="1513" xmlns="http://www.w3.org/2000/svg" xmlns:xlink="http://www.w3.org/1999/xlink" xml:space="preserve" overflow="hidden"><defs><clipPath id="clip0"><rect x="1444" y="481" width="1511" height="1513"/></clipPath></defs><g clip-path="url(#clip0)" transform="translate(-1444 -481)"><path d="M2199.87 481C2591.24 481 2913.14 778.683 2951.84 1160.15L2955 1222.68 2955 1252.32 2951.84 1314.85C2913.14 1696.32 2591.24 1994 2199.87 1994 1782.42 1994 1444 1655.3 1444 1237.5 1444 819.697 1782.42 481 2199.87 481Z" fill="#579240" fill-rule="evenodd"/><path d="M1830.72 1925.8C1830.72 1925.8 1792.8 1946.64 1809.37 1920.47 1825.9 1894.3 1877.71 1819.47 1877.71 1819.47 1877.71 1819.47 1876.09 1806.65 1884.1 1800.25 1892.11 1793.82 1908.68 1771.4 1908.68 1771.4L2041.61 1502.62C2041.61 1502.62 2051.75 1486.05 2052.3 1480.72 2052.81 1475.35 2062.95 1450.76 2090.18 1442.75 2117.44 1434.22 2148.92 1403.21 2148.92 1403.21 2148.92 1403.21 2278.14 1271.77 2308.56 1260.56 2338.46 1249.32 2337.4 1215.14 2325.64 1226.9 2313.37 1238.62 2277.07 1264.83 2244.49 1281.4 2211.93 1297.94 2173.47 1331.61 2173.47 1331.61 2173.47 1331.61 2132.91 1354.06 2106.75 1355.65 2080.59 1357.26 2046.93 1353.51 2044.29 1353 2042.16 1352.45 2041.61 1329.48 2053.36 1318.78 2065.08 1308.12 2082.72 1299.56 2085.91 1280.85 2089.11 1262.15 2105.68 1225.28 2117.44 1219.95 2129.16 1214.59 2140.91 1164.38 2193.23 1130.16 2218.88 1109.32 2116.34 1123.22 2116.34 1123.22L1918.27 1127.48C1918.27 1127.48 1894.79 1136.59 1876.64 1133.36 1858.49 1130.16 1841.92 1145.67 1841.92 1145.67 1841.92 1145.67 1804.56 1184.12 1783.73 1197.5 1762.93 1210.84 1702.05 1254.68 1692.98 1266.41 1683.9 1278.17 1656.13 1280.85 1656.13 1280.85L1573.9 1276.04C1573.9 1276.04 1569.13 1264.28 1583.53 1265.34 1597.93 1266.96 1635.85 1272.84 1642.79 1268.03 1649.73 1263.21 1720.75 1229.03 1735.16 1213 1749.04 1196.95 1785.86 1180.92 1805.62 1157.95 1825.39 1134.98 1842.47 1107.19 1866.5 1102.93 1890.53 1098.63 1981.83 1105.58 2003.18 1102.93 2025.07 1100.25 2089.66 1091.68 2098.19 1087.42 2106.75 1083.16 2148.92 1078.86 2155.32 1078.86 2161.74 1078.86 2239.16 1078.86 2239.16 1078.86 2239.16 1078.86 2291.48 1030.78 2305.36 1010.46 2319.25 990.17 2367.82 945.294 2379.58 944.228 2391.85 943.127 2395.05 928.719 2395.05 928.719 2395.05 928.719 2387.59 887.556 2376.9 877.962 2375.28 853.89 2397.18 866.201 2397.18 866.201 2397.18 866.201 2408.93 881.16 2413.75 883.292 2418.52 885.424 2423.34 884.909 2421.2 878.478 2419.07 872.082 2408.38 860.837 2407.32 853.89 2406.25 846.944 2415.88 833.051 2424.95 845.362 2434.03 858.189 2427.6 867.267 2427.6 867.267 2427.6 867.267 2423.34 883.292 2431.9 889.173 2440.42 894.503 2444.68 892.921 2444.68 888.657 2444.68 884.358 2440.42 877.962 2444.68 873.148 2448.98 867.783 2466.58 860.321 2470.84 864.585 2475.14 868.884 2483.66 864.069 2485.79 864.069 2487.93 863.519 2494.35 866.717 2494.35 866.717 2494.35 866.717 2490.09 613.982 2470.84 585.664 2494.35 588.336 2494.35 625.739 2494.35 625.739 2494.35 625.739 2507.18 848.045 2506.63 862.453 2506.63 874.73 2510.37 880.094 2517.83 877.412 2525.33 874.73 2563.76 797.803 2723.39 747.047 2734.08 755.575 2723.39 759.323 2723.39 759.323 2723.39 759.323 2604.32 800.486 2525.33 881.71 2519.96 889.723 2540.79 924.97 2540.79 924.97 2540.79 924.97 2561.63 973.079 2508.24 981.092 2492.74 993.369 2498.62 1014.76 2511.44 1020.64 2524.26 1026.52 2527.97 1031.3 2542.41 1033.46 2556.81 1035.05 2588.85 1037.18 2607.55 1046.26 2616.62 1032.91 2638.49 1033.46 2638.49 1033.46L2678.02 1031.85 2682.83 1018.47 2705.76 1035.05C2705.76 1035.05 2707.37 1047.87 2696.17 1047.36 2684.96 1046.81 2674.27 1041.99 2665.2 1047.87 2656.12 1053.2 2651.31 1062.83 2650.24 1065.51 2649.18 1068.2 2644.92 1082.61 2609.13 1074.04 2573.9 1064.96 2534.4 1040.93 2492.74 1047.87 2451.11 1054.82 2456.44 1087.42 2462.32 1142.44 2467.65 1197.5 2471.39 1271.77 2467.13 1287.28 2498.62 1325.73 2535.47 1358.33 2535.47 1358.33 2535.47 1358.33 2553.62 1371.16 2564.31 1390.93 2574.96 1411.25 2590.98 1429.41 2598.99 1435.29 2639.55 1470.02 2611.26 1484.98 2588.85 1455.06 2584.59 1449.18 2557.36 1420.33 2557.36 1420.33 2557.36 1420.33 2534.92 1379.17 2471.39 1320.91 2407.87 1262.7 2438.84 1220.47 2438.84 1220.47 2438.84 1220.47 2453.24 1172.91 2439.35 1159.02 2425.47 1145.12 2410.51 1158.5 2410.51 1158.5 2410.51 1158.5 2375.83 1240.79 2344.31 1273.36 2312.82 1305.96 2281.85 1341.24 2257.82 1353.51 2233.79 1365.83 2140.36 1433.67 2140.36 1433.67L2113.14 1458.78C2113.14 1458.78 2120.63 1478.55 2100.87 1490.31 2081.1 1502.62 2063.5 1500.45 2063.5 1500.45 2063.5 1500.45 1938.03 1765.52 1919.89 1787.94 1901.74 1810.39 1910.26 1826.97 1910.26 1826.97 1910.26 1826.97 1899.05 1823.22 1893.73 1830.68 1888.36 1836.05 1830.72 1925.8 1830.72 1925.8Z" fill="#FFFFFF" fill-rule="evenodd"/></g></svg>