<svg width="440" height="441" xmlns="http://www.w3.org/2000/svg" xmlns:xlink="http://www.w3.org/1999/xlink" xml:space="preserve" overflow="hidden"><defs><clipPath id="clip0"><rect x="2135" y="1172" width="440" height="441"/></clipPath></defs><g clip-path="url(#clip0)" transform="translate(-2135 -1172)"><path d="M2528.68 1613 2181.32 1613C2155.74 1613 2135 1592.22 2135 1566.58L2135 1218.42C2135 1192.78 2155.74 1172 2181.32 1172L2528.68 1172C2554.26 1172 2575 1192.78 2575 1218.42L2575 1566.58C2575 1592.22 2554.26 1613 2528.68 1613Z" fill="#263238" fill-rule="evenodd"/><path d="M2547.07 1389.6C2528.41 1405.05 2507.54 1418.6 2487.29 1431.87 2476.12 1439.19 2468.43 1442.76 2454.79 1443.87 2437.26 1445.3 2444.38 1433.02 2450.7 1424.92 2454.19 1420.43 2471.6 1404.3 2463.37 1398.4 2457.05 1393.85 2443.69 1405.93 2437.45 1408.09 2410.25 1417.49 2397.74 1388.17 2392.82 1368.19 2388.98 1352.63 2378.65 1357.74 2369.57 1364.8 2355.38 1378.71 2335.79 1388.66 2314.37 1396.56 2304.69 1400.48 2303.32 1418.16 2317.73 1420.19 2325.32 1421.25 2334.89 1420.64 2342.59 1420.85 2340.06 1423.78 2329.7 1432.2 2334.32 1437.63 2337.1 1440.9 2345.5 1445.7 2348.97 1448.21 2352.9 1451.05 2356.93 1454.72 2361.53 1456.37 2370.46 1459.58 2376.92 1449.88 2369.41 1443.58 2378.23 1441.05 2387.06 1438.52 2395.89 1435.99 2403.1 1433.92 2408.56 1437.18 2415.66 1439.56 2401.82 1441.28 2384.74 1440.76 2378.06 1455.69 2372.29 1465.88 2369.77 1484.18 2353.54 1481.02 2345.82 1479.52 2330.69 1472.39 2325.72 1466.35 2320.97 1460.57 2325.14 1446.75 2324.81 1439.73 2324.45 1432.42 2321.04 1426.27 2314.44 1422.85 2313.69 1434.69 2312.93 1446.53 2312.18 1458.37 2310.98 1477.26 2321.08 1480.94 2336.68 1490.05 2360.15 1503.75 2382.62 1518.54 2403.07 1536.49 2408.61 1541.35 2421.68 1558.93 2429.68 1550.96 2434.22 1546.43 2429.2 1539.82 2425.6 1536.58L2413.1 1523.54C2412.05 1522.62 2408.85 1519.13 2410.56 1517.58 2412.88 1515.5 2418.1 1523.82 2419.98 1524.62 2420.5 1524.83 2418.71 1514.13 2418.71 1514.27 2419.07 1508.1 2424.43 1503.27 2430.6 1503.53 2448.42 1504.25 2444.97 1522 2444.97 1532.73 2444.97 1519.93 2417.14 1519.51 2429.74 1533.95 2444.69 1551.08 2457.5 1531.02 2463.05 1515.32 2467.75 1501.98 2464.76 1498.05 2474.77 1488.89 2485.05 1479.49 2495.32 1470.09 2505.6 1460.71 2519.35 1448.13 2533.25 1435.67 2546.13 1422.19 2556.73 1411.1 2565.72 1398.99 2568.64 1383.51 2571.95 1365.86 2551.64 1385.8 2547.07 1389.6Z" fill="#FAFAFA" fill-rule="evenodd"/><path d="M2358.5 1446C2357.59 1446 2356.69 1445.64 2356.01 1444.93 2353.08 1441.87 2350 1439.46 2346.86 1437.75 2345.16 1436.82 2344.5 1434.65 2345.41 1432.91 2346.3 1431.17 2348.4 1430.49 2350.12 1431.42 2353.91 1433.47 2357.57 1436.32 2361 1439.91 2362.35 1441.32 2362.33 1443.6 2360.95 1444.98 2360.27 1445.67 2359.38 1446 2358.5 1446Z" fill="#D32F2F" fill-rule="evenodd"/><path d="M2340.7 1268.12C2332.93 1260.76 2324.15 1251.82 2318.43 1251.82 2314.61 1251.82 2312.16 1255.83 2312.33 1267.02 2312.59 1285.47 2307.02 1303.52 2301.7 1321 2294.83 1343.6 2280.11 1365.68 2263.17 1381.78 2255.88 1379.42 2249.7 1375.2 2245.46 1367.65 2267.92 1340.44 2287.18 1300.18 2285.52 1264.28 2284.42 1240.71 2276.23 1233.01 2261.99 1233 2255.42 1233 2247.56 1234.65 2238.51 1237.13 2227.95 1240.03 2217.39 1242.93 2206.82 1245.83 2190.65 1250.27 2204.67 1259.73 2208.94 1267.64 2223.27 1294.15 2215.89 1324.72 2210.38 1352.43 2198.01 1347.04 2185.14 1343.26 2173.94 1343.26 2156.61 1343.26 2143.31 1352.32 2142.07 1378.52 2141.36 1393.6 2145.88 1397.67 2153.1 1397.67 2158.5 1397.67 2165.43 1395.38 2172.79 1393.75 2176.85 1392.84 2180.96 1392.44 2185.08 1392.44 2197.8 1392.44 2210.54 1396.36 2221.83 1401.69 2253.43 1416.64 2271.04 1440.37 2289.25 1469.27 2293.2 1475.53 2296.09 1478 2298.17 1478 2304.3 1478 2303.37 1456.61 2301.72 1447.91 2298.53 1431.21 2288.8 1416.2 2281.6 1400.98 2310.76 1392.35 2349.08 1379.72 2369.58 1355.71 2391.31 1330.3 2360.31 1286.71 2340.7 1268.12Z" fill="#FAFAFA" fill-rule="evenodd"/></g></svg>